<svg id="Capa_1" data-name="Capa 1" xmlns="http://www.w3.org/2000/svg" viewBox="0 0 264.25 123.86"><defs><style>.cls-1{fill:#1d1d1b;}.cls-2{fill:#951b81;}.cls-3{fill:#e71d73;}.cls-4{fill:#a3195b;}.cls-5{fill:#662483;}.cls-6{fill:#2d2e83;}.cls-7{fill:#1d71b8;}.cls-8{fill:#00a19a;}.cls-9{fill:#2fac66;}.cls-10{fill:#008d36;}.cls-11{fill:#95c11f;}.cls-12{fill:#dedc00;}.cls-13{fill:#fcea10;}.cls-14{fill:#f9b233;}.cls-15{fill:#e94e1b;}</style></defs><path class="cls-1" d="M77,71.76H62.8v5.77H78.53l-.71,4.93H56.64V57.11H77.71V62H62.8v4.8H77Z" transform="translate(-17.27 -8.33)"/><path class="cls-1" d="M83.1,57.11h6.15V77.53h14.2l-.81,4.93H83.1Z" transform="translate(-17.27 -8.33)"/><path class="cls-1" d="M106.86,57.11H113V77.53h14.2l-.81,4.93H106.86Z" transform="translate(-17.27 -8.33)"/><path class="cls-1" d="M133.39,82.46V73.39a1.36,1.36,0,0,0-.31-.83L122.59,57.11h7.31c2.49,4,5.61,8.79,6.83,11.19,1.29-2.37,4.47-7.22,7-11.19h6.7L139.72,72.82a1,1,0,0,0-.15.67v9Z" transform="translate(-17.27 -8.33)"/><path class="cls-1" d="M156.72,74.86c.72,2.19,2.47,3.63,6.68,3.63,3.94,0,5.08-1.2,5.08-2.84S167.31,72.92,162,72c-8.8-1.5-10.4-4.36-10.4-7.76,0-5.06,4.88-7.65,10.87-7.65,8.7,0,11.06,4.47,11.35,7.42h-6.16c-.36-1.26-1.2-2.94-5.38-2.94-2.93,0-4.42.93-4.42,2.57,0,1.47,1,2.2,5.8,3.06,9.64,1.73,11.14,4.63,11.14,8.31,0,4.4-3.44,8-12,8-7.93,0-11.5-3.54-12.27-8.11Z" transform="translate(-17.27 -8.33)"/><path class="cls-1" d="M195.21,76.71,193,82.46h-6.33l10.21-25.35h7.89l10.74,25.35h-6.66l-2.35-5.75Zm9.57-4.94c-2.36-5.81-3.51-8.77-4.12-10.71h0c-.57,1.9-1.92,5.76-3.82,10.71Z" transform="translate(-17.27 -8.33)"/><path class="cls-1" d="M218.82,57.11h13.12c5.89,0,9.81,3,9.81,8,0,5.19-3.69,8.29-9.91,8.29H225v9.1h-6.19ZM225,68.59h6.36c2.6,0,4.25-.9,4.25-3.42,0-2.05-1.26-3.32-4.25-3.32H225Z" transform="translate(-17.27 -8.33)"/><path class="cls-1" d="M246,57.11h13.12c5.89,0,9.81,3,9.81,8,0,5.19-3.69,8.29-9.91,8.29h-6.84v9.1H246Zm6.18,11.48h6.36c2.61,0,4.26-.9,4.26-3.42,0-2.05-1.27-3.32-4.26-3.32h-6.36Z" transform="translate(-17.27 -8.33)"/><line class="cls-2" x1="37.05" y1="83.95" x2="261.84" y2="81.97"/><path class="cls-3" d="M54.32,94.78l6,0,16.34-.14,24.15-.22,29.59-.26,32.28-.28,32.58-.29,30.5-.27L251.48,93,270,92.88c2.93,0,5.86,0,8.79-.08h.37c3.22,0,3.22-5,0-5l-6,0L256.73,88l-24.15.21L203,88.47l-32.29.29L138.13,89l-30.5.27L82,89.54l-18.47.16c-2.93,0-5.86,0-8.78.08h-.38c-3.21,0-3.22,5,0,5Z" transform="translate(-17.27 -8.33)"/><path class="cls-4" d="M64.86,103.33h4.42v11.51H77V103.33h4.43v28.46H77V118.7H69.28v13.09H64.86Z" transform="translate(-17.27 -8.33)"/><path class="cls-2" d="M101.05,120.79c0,7.75-2.76,11.41-7.92,11.41s-7.84-3.5-7.84-11.31c0-7.6,3.12-11.06,8-11.06S101.05,113.55,101.05,120.79Zm-11.35.08c0,5,1,7.66,3.53,7.66s3.41-2.6,3.41-7.63-1-7.37-3.44-7.37S89.7,115.83,89.7,120.87Z" transform="translate(-17.27 -8.33)"/><path class="cls-5" d="M102.4,110.2h2.9v-5.52h4.34v5.52h3.48v3.61h-3.48v12.6c0,1.33.26,2.12,1.84,2.12a6.1,6.1,0,0,0,1.33-.1v3.24a8.26,8.26,0,0,1-2.88.41c-3.14,0-4.63-1.19-4.63-4.91V113.81h-2.9Z" transform="translate(-17.27 -8.33)"/><path class="cls-6" d="M119.11,122.05c0,3.24.47,6.5,3.45,6.5a3.21,3.21,0,0,0,3.24-3.18H130c-.08.64-.6,6.83-7.5,6.83s-7.73-5.87-7.73-11.3c0-6.84,2.52-11.07,7.86-11.07,6.06,0,7.53,4.68,7.53,10.24,0,.64,0,1.55-.07,2Zm6.74-3.22c0-2.64-.42-5.39-3.24-5.39-3.22,0-3.4,3.86-3.43,5.39Z" transform="translate(-17.27 -8.33)"/><path class="cls-7" d="M133.71,131.79V101.92h4.36v29.87Z" transform="translate(-17.27 -8.33)"/><path class="cls-8" d="M146.08,122.05c0,3.24.46,6.5,3.45,6.5a3.21,3.21,0,0,0,3.24-3.18H157c-.07.64-.6,6.83-7.49,6.83s-7.73-5.87-7.73-11.3c0-6.84,2.51-11.07,7.85-11.07,6.07,0,7.54,4.68,7.54,10.24,0,.64,0,1.55-.07,2Zm6.74-3.22c0-2.64-.43-5.39-3.24-5.39-3.23,0-3.41,3.86-3.43,5.39Z" transform="translate(-17.27 -8.33)"/><path class="cls-9" d="M163.76,125.36c.07,1.75,1,3.43,3.15,3.43a2.47,2.47,0,0,0,2.79-2.66c0-1.76-.84-2.66-3.49-3.66-4.88-1.82-6.15-3.54-6.15-6.64,0-2.92,1.83-6,6.73-6,5.38,0,6.76,3.69,6.77,6.53h-4.19c0-.85-.16-3.15-2.7-3.15a2.16,2.16,0,0,0-2.35,2.35c0,1.49.78,2.19,3.5,3.21,4.43,1.66,6.2,3.33,6.2,6.89,0,4.15-2.59,6.54-7.3,6.54-4.92,0-7.19-2.95-7.24-6.81Z" transform="translate(-17.27 -8.33)"/><path class="cls-10" d="M199.23,118.79H190V128h10.36l-.56,3.83H185.61V103.33h14.07v3.89H190v7.71h9.26ZM200,96.33l-5.76,5H190l4.69-5Z" transform="translate(-17.27 -8.33)"/><path class="cls-11" d="M201.35,110.2h2.9v-5.52h4.34v5.52h3.48v3.61h-3.48v12.6c0,1.33.26,2.12,1.84,2.12a6.1,6.1,0,0,0,1.33-.1v3.24a8.26,8.26,0,0,1-2.88.41c-3.14,0-4.63-1.19-4.63-4.91V113.81h-2.9Z" transform="translate(-17.27 -8.33)"/><path class="cls-12" d="M214.9,110.2h4.35v21.59H214.9Zm0-8.28h4.36v4.77h-4.36Z" transform="translate(-17.27 -8.33)"/><path class="cls-13" d="M237.81,124.72c-.08,1.54-.5,7.45-7.35,7.45-6,0-7.54-5-7.54-11.33,0-5.83,1.92-11,7.8-11,6.82,0,7.06,6,7.09,7.22H233.4c0-.85-.19-3.58-2.71-3.58s-3.36,2.77-3.36,7.42c0,4.89.85,7.67,3.27,7.67,2.6,0,2.84-2.62,3-3.81Z" transform="translate(-17.27 -8.33)"/><path class="cls-14" d="M256.16,120.79c0,7.75-2.77,11.41-7.93,11.41s-7.84-3.5-7.84-11.31c0-7.6,3.12-11.06,8.06-11.06S256.16,113.55,256.16,120.79Zm-11.36.08c0,5,1,7.66,3.53,7.66s3.42-2.6,3.42-7.63-1-7.37-3.44-7.37S244.8,115.83,244.8,120.87Z" transform="translate(-17.27 -8.33)"/><path class="cls-15" d="M262.8,125.36c.06,1.75.95,3.43,3.14,3.43a2.47,2.47,0,0,0,2.79-2.66c0-1.76-.84-2.66-3.48-3.66-4.88-1.82-6.15-3.54-6.15-6.64,0-2.92,1.82-6,6.72-6,5.39,0,6.76,3.69,6.77,6.53H268.4c0-.85-.15-3.15-2.69-3.15a2.16,2.16,0,0,0-2.35,2.35c0,1.49.77,2.19,3.49,3.21,4.43,1.66,6.2,3.33,6.2,6.89,0,4.15-2.59,6.54-7.29,6.54-4.93,0-7.19-2.95-7.24-6.81Z" transform="translate(-17.27 -8.33)"/><polygon class="cls-3" points="4.31 22.78 4.31 0.92 8.93 0.92 8.93 20.93 16.9 20.93 14.06 40.51 27.67 20.93 30.78 20.93 30.78 0 36.32 0 36.32 22.78 43.71 32.32 18.47 58.8 42.17 123.13 25.97 123.13 17.18 107.69 12.08 123.13 2.77 123.13 9.29 96.92 0 26.78 4.31 22.78"/></svg>